<?xml version="1.0" encoding="UTF-8"?>
<svg id="Layer_2" data-name="Layer 2" xmlns="http://www.w3.org/2000/svg" viewBox="0 0 121.44 121.67">
  <defs>
    <style>
      .cls-1 {
        fill: #cd7fae;
      }
    </style>
  </defs>
  <g id="Layer_1-2" data-name="Layer 1">
    <rect width="121.44" height="121.67"/>
    <path class="cls-1" d="M78.76,32.07l-20.62,57.51h-12.08s20.63-57.51,20.63-57.51h12.06ZM66.18,89.6h12.08s8.51-23.76,8.51-23.76h-12.07s-8.52,23.76-8.52,23.76ZM59.37,32.08h-11.95s-1.21,2.71-1.21,2.71l-.04.07c-3.45,6.18-9.66,9.86-16.62,9.86-.63,0-1.26-.03-1.89-.09l-3.68,10.17,2.69.15c.55.02,1.1.02,1.62.02,5.26,0,9.76-.83,13.77-2.53,8.23-3.49,14.48-12.57,17.32-20.37ZM90.03,32.07c-4.1,0-7.43,3.33-7.43,7.43s3.33,7.43,7.43,7.43,7.43-3.33,7.43-7.43-3.33-7.43-7.43-7.43Z"/>
  </g>
</svg>